# Blender 5.2.2 LTS
# www.blender.org
mtllib Skybox.mtl
o Icosphere
v 0.000000 -0.930305 -0.000000
v 0.673174 -0.416049 0.489085
v -0.257126 -0.416049 0.791362
v -0.832088 -0.416047 -0.000000
v -0.257126 -0.416049 -0.791362
v 0.673174 -0.416049 -0.489085
v 0.257126 0.416049 0.791362
v -0.673174 0.416049 0.489085
v -0.673174 0.416049 -0.489085
v 0.257126 0.416049 -0.791362
v 0.832088 0.416047 0.000000
v -0.000000 0.930305 0.000000
v -0.150250 -0.786741 0.462429
v 0.393367 -0.786741 0.285795
v 0.243117 -0.486235 0.748227
v 0.786735 -0.486234 -0.000000
v 0.393367 -0.786741 -0.285795
v -0.486229 -0.786739 0.000000
v -0.636482 -0.486234 0.462430
v -0.150250 -0.786741 -0.462429
v -0.636482 -0.486234 -0.462430
v 0.243117 -0.486235 -0.748227
v 0.879599 -0.000000 0.285796
v 0.879599 -0.000000 -0.285796
v 0.000000 -0.000000 0.924864
v 0.543622 -0.000000 0.748230
v -0.879599 0.000000 0.285796
v -0.543622 0.000000 0.748230
v -0.543622 0.000000 -0.748230
v -0.879599 0.000000 -0.285796
v 0.543622 -0.000000 -0.748230
v -0.000000 0.000000 -0.924864
v 0.636482 0.486234 0.462430
v -0.243117 0.486235 0.748227
v -0.786735 0.486234 -0.000000
v -0.243117 0.486235 -0.748227
v 0.636482 0.486234 -0.462430
v 0.150250 0.786741 0.462429
v 0.486229 0.786739 -0.000000
v -0.393367 0.786741 0.285795
v -0.393367 0.786741 -0.285795
v 0.150250 0.786741 -0.462429
v -0.073931 -0.898430 0.227539
v 0.563546 -0.615787 0.409436
v -0.021694 -0.467922 0.803114
v 0.757104 -0.467921 0.268809
v 0.563546 -0.615787 -0.409436
v -0.239250 -0.898430 0.000000
v -0.770514 -0.467920 0.227540
v -0.073931 -0.898431 -0.227539
v -0.454504 -0.467922 -0.662487
v 0.489615 -0.467922 -0.636978
v 0.802799 -0.228668 0.409437
v 0.890141 0.228667 -0.140627
v -0.141321 -0.228668 0.890030
v 0.408812 0.228668 0.803116
v -0.890141 -0.228667 0.140627
v -0.637480 0.228668 0.636979
v -0.408812 -0.228668 -0.803117
v -0.802799 0.228668 -0.409437
v 0.637480 -0.228668 -0.636979
v 0.141321 0.228668 -0.890030
v 0.454504 0.467922 0.662487
v -0.489615 0.467922 0.636978
v -0.757104 0.467921 -0.268809
v 0.021694 0.467922 -0.803114
v 0.770514 0.467920 -0.227540
v 0.215252 0.615787 0.662486
v 0.239250 0.898430 0.000000
v -0.563546 0.615787 0.409436
v -0.563546 0.615787 -0.409436
v 0.215252 0.615787 -0.662486
v -0.215252 -0.615787 0.662486
v 0.193558 -0.898431 0.140627
v 0.489615 -0.467922 0.636978
v 0.757104 -0.467921 -0.268809
v 0.193558 -0.898431 -0.140626
v -0.696581 -0.615785 -0.000000
v -0.454504 -0.467922 0.662487
v -0.215252 -0.615788 -0.662486
v -0.770514 -0.467920 -0.227540
v -0.021694 -0.467922 -0.803114
v 0.890141 0.228667 0.140627
v 0.802799 -0.228668 -0.409437
v 0.141321 0.228668 0.890030
v 0.637480 -0.228668 0.636979
v -0.802799 0.228668 0.409437
v -0.408812 -0.228668 0.803117
v -0.637480 0.228668 -0.636979
v -0.890141 -0.228667 -0.140627
v 0.408812 0.228668 -0.803117
v -0.141321 -0.228668 -0.890030
v 0.770514 0.467920 0.227540
v 0.021694 0.467922 0.803114
v -0.757104 0.467921 0.268809
v -0.489615 0.467922 -0.636978
v 0.454504 0.467922 -0.662487
v 0.073931 0.898430 0.227539
v 0.696581 0.615785 -0.000000
v -0.193558 0.898431 0.140626
v -0.193558 0.898431 -0.140627
v 0.073931 0.898430 -0.227539
v 0.339247 0.822416 -0.246477
v 0.583871 0.671232 -0.246477
v 0.414839 0.671233 -0.479126
v -0.129583 0.822417 -0.398807
v -0.053992 0.671234 -0.631458
v -0.327487 0.671233 -0.542592
v -0.419333 0.822417 -0.000000
v -0.617237 0.671233 -0.143784
v -0.617237 0.671233 0.143784
v -0.129583 0.822417 0.398807
v -0.327487 0.671233 0.542592
v -0.053992 0.671234 0.631458
v 0.339247 0.822416 0.246477
v 0.414839 0.671233 0.479126
v 0.583871 0.671232 0.246477
v 0.793540 0.251895 -0.398809
v 0.746822 0.007270 -0.542595
v 0.624509 0.251896 -0.631460
v -0.134077 0.251896 -0.877939
v -0.285260 0.007270 -0.877940
v -0.407573 0.251896 -0.789074
v -0.876403 0.251896 -0.143784
v -0.923122 0.007270 0.000000
v -0.876403 0.251896 0.143784
v -0.407573 0.251896 0.789074
v -0.285260 0.007270 0.877940
v -0.134077 0.251896 0.877939
v 0.624509 0.251896 0.631460
v 0.746822 0.007270 0.542595
v 0.793540 0.251895 0.398809
v 0.285260 -0.007270 -0.877940
v 0.407573 -0.251896 -0.789074
v 0.134077 -0.251896 -0.877939
v -0.746822 -0.007270 -0.542595
v -0.624509 -0.251896 -0.631460
v -0.793540 -0.251895 -0.398809
v -0.746822 -0.007270 0.542595
v -0.793540 -0.251895 0.398809
v -0.624509 -0.251896 0.631460
v 0.285260 -0.007270 0.877940
v 0.134077 -0.251896 0.877939
v 0.407573 -0.251896 0.789074
v 0.923122 -0.007270 -0.000000
v 0.876403 -0.251896 0.143784
v 0.876403 -0.251896 -0.143784
v 0.327487 -0.671233 -0.542592
v 0.129583 -0.822418 -0.398807
v 0.053992 -0.671234 -0.631458
v -0.414839 -0.671233 -0.479126
v -0.339247 -0.822416 -0.246477
v -0.583871 -0.671232 -0.246477
v -0.583871 -0.671232 0.246477
v -0.339247 -0.822416 0.246477
v -0.414839 -0.671233 0.479126
v 0.617237 -0.671233 -0.143784
v 0.617237 -0.671233 0.143784
v 0.419333 -0.822417 0.000000
v 0.053992 -0.671233 0.631458
v 0.129583 -0.822418 0.398807
v 0.327487 -0.671234 0.542592
v 0.085689 -0.888288 0.263719
v 0.657405 -0.597910 0.276164
v -0.224334 -0.888287 0.162988
v -0.224334 -0.888287 -0.162988
v 0.085689 -0.888288 -0.263719
v 0.828783 -0.320615 0.276165
v -0.006541 -0.320615 0.873558
v -0.832827 -0.320613 0.263720
v -0.508170 -0.320615 -0.710570
v 0.518761 -0.320615 -0.702876
v 0.743096 -0.149236 0.539887
v -0.283836 -0.149236 0.873560
v -0.918517 -0.149235 0.000000
v -0.283836 -0.149236 -0.873560
v 0.743096 -0.149236 -0.539887
v 0.369522 0.597910 0.609836
v -0.465802 0.597910 0.539885
v -0.657405 0.597910 -0.276164
v 0.059498 0.597910 -0.710568
v 0.694179 0.597908 -0.162988
v 0.224334 0.888287 -0.162988
v 0.453115 0.733163 -0.329207
v 0.369522 0.597910 -0.609836
v -0.085689 0.888288 -0.263719
v -0.173077 0.733164 -0.532667
v -0.465802 0.597910 -0.539885
v -0.277292 0.888288 0.000000
v -0.560082 0.733164 0.000000
v -0.657405 0.597910 0.276164
v -0.085689 0.888288 0.263719
v -0.173077 0.733164 0.532667
v 0.059498 0.597910 0.710568
v 0.224334 0.888287 0.162988
v 0.453115 0.733163 0.329207
v 0.694179 0.597908 0.162988
v 0.832827 0.320613 -0.263720
v 0.733160 0.173077 -0.532669
v 0.508170 0.320615 -0.710570
v 0.006541 0.320615 -0.873558
v -0.280043 0.173078 -0.861879
v -0.518761 0.320615 -0.702876
v -0.828783 0.320615 -0.276165
v -0.906235 0.173077 0.000000
v -0.828783 0.320615 0.276165
v -0.518761 0.320615 0.702876
v -0.280043 0.173078 0.861879
v 0.006541 0.320615 0.873558
v 0.508170 0.320615 0.710570
v 0.733160 0.173077 0.532669
v 0.832827 0.320613 0.263720
v 0.283836 0.149236 -0.873560
v 0.280043 -0.173078 -0.861879
v -0.006541 -0.320615 -0.873558
v -0.743096 0.149236 -0.539887
v -0.733160 -0.173077 -0.532669
v -0.832827 -0.320613 -0.263720
v -0.743096 0.149236 0.539887
v -0.733160 -0.173077 0.532669
v -0.508170 -0.320615 0.710570
v 0.283836 0.149236 0.873560
v 0.280043 -0.173078 0.861879
v 0.518761 -0.320615 0.702876
v 0.918516 0.149235 -0.000000
v 0.906235 -0.173077 -0.000000
v 0.828783 -0.320615 -0.276165
v 0.465802 -0.597910 -0.539885
v 0.173077 -0.733164 -0.532667
v -0.059498 -0.597910 -0.710568
v -0.369522 -0.597910 -0.609835
v -0.453115 -0.733163 -0.329207
v -0.694179 -0.597908 -0.162988
v -0.694179 -0.597908 0.162988
v -0.453115 -0.733163 0.329207
v -0.369522 -0.597910 0.609836
v 0.657405 -0.597910 -0.276164
v 0.560082 -0.733164 -0.000000
v 0.277292 -0.888288 -0.000000
v -0.059498 -0.597910 0.710568
v 0.173077 -0.733164 0.532667
v 0.465802 -0.597910 0.539885
vn 0.0463 -0.9887 0.1425
vn 0.2738 -0.9021 0.3335
vn -0.0255 -0.9021 0.4307
vn 0.7233 -0.5506 0.4167
vn 0.5657 -0.7769 0.2765
vn 0.7823 -0.6114 0.1191
vn -0.1212 -0.9887 0.0881
vn -0.2325 -0.9021 0.3635
vn -0.4175 -0.9021 0.1088
vn -0.1212 -0.9887 -0.0881
vn -0.4175 -0.9021 -0.1088
vn -0.2325 -0.9021 -0.3635
vn 0.0463 -0.9887 -0.1425
vn -0.0255 -0.9021 -0.4307
vn 0.2738 -0.9021 -0.3335
vn 0.8159 -0.4008 0.4167
vn 0.8967 -0.4263 0.1191
vn 0.9479 -0.1585 0.2765
vn -0.1442 -0.4008 0.9048
vn 0.1638 -0.4263 0.8896
vn 0.0300 -0.1585 0.9869
vn -0.9050 -0.4008 0.1425
vn -0.7955 -0.4263 0.4307
vn -0.9293 -0.1585 0.3335
vn -0.4152 -0.4008 -0.8167
vn -0.6554 -0.4263 -0.6234
vn -0.6043 -0.1585 -0.7808
vn 0.6484 -0.4008 -0.6472
vn 0.3904 -0.4263 -0.8160
vn 0.5559 -0.1585 -0.8160
vn 0.7696 -0.3082 0.5592
vn 0.8906 -0.0441 0.4526
vn 0.7056 -0.0441 0.7072
vn -0.2940 -0.3082 0.9048
vn -0.1552 -0.0441 0.9869
vn -0.4545 -0.0441 0.8896
vn -0.9513 -0.3082 -0.0000
vn -0.9866 -0.0441 0.1574
vn -0.9866 -0.0441 -0.1574
vn -0.2940 -0.3082 -0.9048
vn -0.4545 -0.0441 -0.8896
vn -0.1552 -0.0441 -0.9869
vn 0.7696 -0.3082 -0.5592
vn 0.7056 -0.0441 -0.7072
vn 0.8906 -0.0441 -0.4526
vn 0.3403 0.5506 0.7623
vn 0.5629 0.6114 0.5562
vn 0.2951 0.7769 0.5562
vn -0.6198 0.5506 0.5592
vn -0.3550 0.6114 0.7072
vn -0.4378 0.7769 0.4526
vn -0.7233 0.5506 -0.4167
vn -0.7823 0.6114 -0.1191
vn -0.5657 0.7769 -0.2765
vn 0.1728 0.5506 -0.8167
vn -0.1285 0.6114 -0.7808
vn 0.0881 0.7769 -0.6234
vn 0.8301 0.5506 -0.0881
vn 0.7029 0.6114 -0.3635
vn 0.6202 0.7769 -0.1088
vn 0.4175 0.9021 -0.1088
vn 0.2325 0.9021 -0.3635
vn 0.1212 0.9887 -0.0881
vn 0.5164 0.8355 -0.1879
vn 0.5960 0.6762 -0.4330
vn 0.3383 0.8355 -0.4330
vn 0.5629 0.6114 -0.5562
vn 0.3403 0.5506 -0.7623
vn 0.2951 0.7769 -0.5562
vn 0.0255 0.9021 -0.4307
vn -0.2738 0.9021 -0.3335
vn -0.0463 0.9887 -0.1425
vn -0.0191 0.8355 -0.5492
vn -0.2277 0.6762 -0.7006
vn -0.3073 0.8355 -0.4555
vn -0.3550 0.6114 -0.7072
vn -0.6198 0.5506 -0.5592
vn -0.4378 0.7769 -0.4526
vn -0.4017 0.9021 -0.1574
vn -0.4017 0.9021 0.1574
vn -0.1498 0.9887 -0.0000
vn -0.5282 0.8355 -0.1515
vn -0.7367 0.6762 -0.0000
vn -0.5282 0.8355 0.1515
vn -0.7823 0.6114 0.1191
vn -0.7233 0.5506 0.4167
vn -0.5657 0.7769 0.2765
vn -0.2738 0.9021 0.3335
vn 0.0255 0.9021 0.4307
vn -0.0463 0.9887 0.1425
vn -0.3073 0.8355 0.4555
vn -0.2277 0.6762 0.7006
vn -0.0191 0.8355 0.5492
vn -0.1285 0.6114 0.7808
vn 0.1728 0.5506 0.8167
vn 0.0881 0.7769 0.6234
vn 0.2325 0.9021 0.3635
vn 0.4175 0.9021 0.1088
vn 0.1212 0.9887 0.0881
vn 0.3383 0.8355 0.4330
vn 0.5960 0.6762 0.4330
vn 0.5164 0.8355 0.1879
vn 0.7029 0.6114 0.3635
vn 0.8301 0.5506 0.0881
vn 0.6202 0.7769 0.1088
vn 0.9293 0.1585 -0.3335
vn 0.7955 0.4263 -0.4307
vn 0.9050 0.4008 -0.1425
vn 0.8847 0.0988 -0.4555
vn 0.7066 0.0988 -0.7006
vn 0.7559 0.3565 -0.5492
vn 0.6043 0.1585 -0.7808
vn 0.4152 0.4008 -0.8167
vn 0.6554 0.4263 -0.6234
vn -0.0300 0.1585 -0.9869
vn -0.1638 0.4263 -0.8896
vn 0.1442 0.4008 -0.9048
vn -0.1598 0.0988 -0.9822
vn -0.4480 0.0988 -0.8886
vn -0.2887 0.3565 -0.8886
vn -0.5559 0.1585 -0.8160
vn -0.6484 0.4008 -0.6472
vn -0.3904 0.4263 -0.8160
vn -0.9479 0.1585 -0.2765
vn -0.8967 0.4263 -0.1191
vn -0.8159 0.4008 -0.4167
vn -0.9835 0.0988 -0.1515
vn -0.9835 0.0988 0.1515
vn -0.9343 0.3565 -0.0000
vn -0.9479 0.1585 0.2765
vn -0.8159 0.4008 0.4167
vn -0.8967 0.4263 0.1191
vn -0.5559 0.1585 0.8160
vn -0.3904 0.4263 0.8160
vn -0.6484 0.4008 0.6472
vn -0.4480 0.0988 0.8886
vn -0.1598 0.0988 0.9822
vn -0.2887 0.3565 0.8886
vn -0.0300 0.1585 0.9869
vn 0.1442 0.4008 0.9048
vn -0.1638 0.4263 0.8896
vn 0.6043 0.1585 0.7808
vn 0.6554 0.4263 0.6234
vn 0.4152 0.4008 0.8167
vn 0.7066 0.0988 0.7006
vn 0.8847 0.0988 0.4555
vn 0.7559 0.3565 0.5492
vn 0.9293 0.1585 0.3335
vn 0.9050 0.4008 0.1425
vn 0.7955 0.4263 0.4307
vn 0.4545 0.0441 -0.8896
vn 0.1552 0.0441 -0.9869
vn 0.2940 0.3082 -0.9048
vn 0.4480 -0.0988 -0.8886
vn 0.2887 -0.3565 -0.8886
vn 0.1598 -0.0988 -0.9822
vn 0.1638 -0.4263 -0.8896
vn -0.1442 -0.4008 -0.9048
vn 0.0300 -0.1585 -0.9869
vn -0.7056 0.0441 -0.7072
vn -0.8906 0.0441 -0.4526
vn -0.7696 0.3082 -0.5592
vn -0.7066 -0.0988 -0.7006
vn -0.7559 -0.3565 -0.5492
vn -0.8847 -0.0988 -0.4555
vn -0.7955 -0.4263 -0.4307
vn -0.9050 -0.4008 -0.1425
vn -0.9293 -0.1585 -0.3335
vn -0.8906 0.0441 0.4526
vn -0.7056 0.0441 0.7072
vn -0.7696 0.3082 0.5592
vn -0.8847 -0.0988 0.4555
vn -0.7559 -0.3565 0.5492
vn -0.7066 -0.0988 0.7006
vn -0.6554 -0.4263 0.6234
vn -0.4152 -0.4008 0.8167
vn -0.6043 -0.1585 0.7808
vn 0.1552 0.0441 0.9869
vn 0.4545 0.0441 0.8896
vn 0.2940 0.3082 0.9048
vn 0.1598 -0.0988 0.9822
vn 0.2887 -0.3565 0.8886
vn 0.4480 -0.0988 0.8886
vn 0.3904 -0.4263 0.8160
vn 0.6484 -0.4008 0.6472
vn 0.5559 -0.1585 0.8160
vn 0.9866 0.0441 0.1574
vn 0.9866 0.0441 -0.1574
vn 0.9513 0.3082 -0.0000
vn 0.9835 -0.0988 0.1515
vn 0.9343 -0.3565 -0.0000
vn 0.9835 -0.0988 -0.1515
vn 0.8967 -0.4263 -0.1191
vn 0.8159 -0.4008 -0.4167
vn 0.9479 -0.1585 -0.2765
vn 0.4378 -0.7769 -0.4526
vn 0.3550 -0.6114 -0.7072
vn 0.6198 -0.5506 -0.5592
vn 0.3073 -0.8355 -0.4555
vn 0.0191 -0.8355 -0.5492
vn 0.2277 -0.6762 -0.7006
vn -0.0881 -0.7769 -0.6234
vn -0.1728 -0.5506 -0.8167
vn 0.1285 -0.6114 -0.7808
vn -0.2951 -0.7769 -0.5562
vn -0.5629 -0.6114 -0.5562
vn -0.3403 -0.5506 -0.7623
vn -0.3383 -0.8355 -0.4330
vn -0.5164 -0.8355 -0.1879
vn -0.5960 -0.6762 -0.4330
vn -0.6202 -0.7769 -0.1088
vn -0.8301 -0.5506 -0.0881
vn -0.7029 -0.6114 -0.3635
vn -0.6202 -0.7769 0.1088
vn -0.7029 -0.6114 0.3635
vn -0.8301 -0.5506 0.0881
vn -0.5164 -0.8355 0.1879
vn -0.3383 -0.8355 0.4330
vn -0.5960 -0.6762 0.4330
vn -0.2951 -0.7769 0.5562
vn -0.3403 -0.5506 0.7623
vn -0.5629 -0.6114 0.5562
vn 0.7823 -0.6114 -0.1191
vn 0.5657 -0.7769 -0.2765
vn 0.7233 -0.5506 -0.4167
vn 0.7367 -0.6762 -0.0000
vn 0.5282 -0.8355 0.1515
vn 0.5282 -0.8355 -0.1515
vn 0.4017 -0.9021 0.1574
vn 0.1498 -0.9887 -0.0000
vn 0.4017 -0.9021 -0.1574
vn -0.0881 -0.7769 0.6234
vn 0.1285 -0.6114 0.7808
vn -0.1728 -0.5506 0.8167
vn 0.0191 -0.8355 0.5492
vn 0.3073 -0.8355 0.4555
vn 0.2277 -0.6762 0.7006
vn 0.4378 -0.7769 0.4526
vn 0.6198 -0.5506 0.5592
vn 0.3550 -0.6114 0.7072
vt 1.780022 -0.191376
vt 1.761534 0.074674
vt 1.626005 0.074386
vt 1.532153 -0.046529
vt 1.749795 0.336824
vt 1.566873 0.211221
vt 1.353058 0.123232
vt 1.532153 -0.046529
vt 1.566873 0.211221
vt 1.735207 0.820796
vt 1.741786 0.590328
vt 1.835489 0.611999
vt 1.868775 0.759483
vt 1.895969 0.500184
vt 1.741786 0.590328
vt 2.021057 0.688335
vt 1.868775 0.759483
vt 1.389108 -0.161198
vt 1.494212 -0.263343
vt 1.208447 -0.127594
vt 1.532153 -0.046529
vt 0.982518 -0.410486
vt 1.494212 -0.263343
vt 1.494212 -0.263343
vt 1.773292 -0.304701
vt 2.145549 -0.259354
vt 1.746797 -0.368909
vt 2.511075 -0.327332
vt 1.746797 -0.368909
vt -1.580062 -0.191376
vt -1.214535 -0.259354
vt -1.219694 -0.121669
vt -1.398473 -0.023825
vt -0.849009 -0.327332
vt -1.064772 -0.067116
vt -1.216884 0.143726
vt -1.398473 -0.023825
vt -1.064772 -0.067116
vt 1.868775 0.759483
vt 1.887651 0.914225
vt 1.815179 1.013070
vt 1.967776 0.962727
vt 1.868775 0.759483
vt 1.914494 1.237119
vt 1.967776 0.962727
vt 1.164583 0.517328
vt 1.303969 0.572684
vt 1.271697 0.719888
vt 1.178988 0.745764
vt 1.456734 0.651367
vt 1.330220 0.833748
vt 1.303969 0.572684
vt 1.194810 1.001849
vt 1.178988 0.745764
vt 1.330220 0.833748
vt 0.533415 0.023214
vt 0.731580 0.071335
vt 0.676948 0.210193
vt 0.560347 0.236837
vt 0.916573 0.191650
vt 0.743910 0.331838
vt 0.731580 0.071335
vt 0.589986 0.492216
vt 0.560347 0.236837
vt 0.743910 0.331838
vt -0.448015 0.083326
vt -0.267583 -0.045334
vt -0.199130 0.077641
vt -0.284523 0.200884
vt 0.028401 -0.113033
vt -0.073917 0.109655
vt -0.267583 -0.045334
vt -0.144110 0.372232
vt -1.045945 0.588208
vt -0.938555 0.430453
vt -0.879089 0.552754
vt -0.921121 0.694978
vt -0.802165 0.270660
vt -0.787415 0.542898
vt -0.938555 0.430453
vt -0.783826 0.821203
vt -0.787415 0.542898
vt 1.815179 1.013070
vt 1.727772 1.086099
vt 1.644950 0.998699
vt 1.722422 1.232859
vt 1.815179 1.013070
vt 1.535933 1.189477
vt 1.644950 0.998699
vt 1.722422 1.232859
vt 1.085122 0.750685
vt 1.035456 0.616961
vt 1.041097 0.881142
vt 1.178988 0.745764
vt 0.896216 0.740506
vt 1.035456 0.616961
vt 1.041097 0.881142
vt 0.447849 0.264178
vt 0.365227 0.156261
vt 0.415609 0.409238
vt 0.560347 0.236837
vt 0.232141 0.344782
vt 0.415609 0.409238
vt -0.357267 0.318683
vt -0.466256 0.302111
vt -0.318803 0.459641
vt -0.485233 0.559859
vt -0.318803 0.459641
vt -0.921121 0.694978
vt -0.973090 0.826416
vt -1.066647 0.815801
vt -0.931091 0.958293
vt -0.921121 0.694978
vt -1.090056 1.069494
vt -1.066647 0.815801
vt -0.931091 0.958293
vt 1.232028 1.478383
vt 1.412459 1.607043
vt 1.272050 1.707124
vt 1.086563 1.664021
vt 1.708443 1.674742
vt 1.399857 1.798169
vt 0.831033 1.889040
vt 1.086562 1.664021
vt 1.399857 1.798169
vt 0.634097 0.973500
vt 0.741487 1.131255
vt 0.660258 1.233211
vt 0.561484 1.175081
vt 0.877878 1.291048
vt 0.683168 1.374276
vt 0.741487 1.131255
vt 0.468561 1.386150
vt 0.561484 1.175081
vt 0.683168 1.374276
vt 0.055166 0.740912
vt 0.188896 0.802006
vt 0.155448 0.949610
vt 0.061745 0.971381
vt 0.341051 0.869712
vt 0.215698 1.061111
vt 0.188896 0.802006
vt 0.069753 1.224885
vt 0.061745 0.971381
vt 0.215698 1.061111
vt -0.515459 1.044381
vt -0.376073 0.989025
vt -0.354381 1.143360
vt -0.433205 1.239145
vt -0.223309 0.910342
vt -0.262159 1.182536
vt -0.376073 0.989025
vt -0.326985 1.438477
vt -0.433205 1.239145
vt -0.262159 1.182536
vt -1.158262 1.581907
vt -0.948049 1.494750
vt -0.872019 1.646755
vt -0.927893 1.777052
vt -0.763469 1.370059
vt -0.731935 1.651072
vt -0.948049 1.494750
vt -0.697524 1.972196
vt -0.471595 1.689303
vt -0.291356 1.720780
vt -0.189652 1.818797
vt -0.149013 1.602566
vt 0.085819 1.681624
vt -0.189652 1.818797
vt -0.149013 1.602566
vt -0.731935 1.651072
vt -0.591103 1.606860
vt -0.471595 1.689303
vt -0.554759 1.445110
vt -0.731935 1.651072
vt -0.471595 1.689303
vt -0.554759 1.445110
vt -0.622878 1.207733
vt -0.534822 1.304128
vt -0.554759 1.445110
vt -0.433205 1.239145
vt -0.554759 1.445110
vt -0.113169 1.350488
vt -0.054458 1.485197
vt -0.149013 1.602566
vt 0.081150 1.481281
vt -0.113169 1.350488
vt 0.081150 1.481281
vt -0.262159 1.182536
vt -0.155952 1.209138
vt -0.113169 1.350488
vt -0.087195 1.083427
vt -0.087195 1.083427
vt -0.074877 0.821701
vt -0.033114 0.963676
vt 0.061745 0.971381
vt 0.061745 0.971381
vt 0.258263 1.324082
vt 0.213788 1.466417
vt 0.081150 1.481281
vt 0.311542 1.572452
vt 0.258263 1.324082
vt 0.081150 1.481281
vt 0.290315 1.176827
vt 0.392796 1.136213
vt 0.215698 1.061111
vt 0.258263 1.324082
vt 0.392796 1.136213
vt 0.495483 0.930320
vt 0.481028 1.086411
vt 0.495483 0.930320
vt 0.613747 1.625843
vt 0.448580 1.676389
vt 0.311542 1.572452
vt 0.348309 1.788255
vt 0.613747 1.625843
vt 0.311542 1.572452
vt 0.348310 1.788255
vt 0.683168 1.374276
vt 0.721760 1.533860
vt 0.854499 1.571774
vt 1.049652 1.416152
vt 0.987823 1.563986
vt 0.854499 1.571774
vt 0.854499 1.571774
vt 0.066755 1.930618
vt 0.076642 1.860784
vt 0.348309 1.788255
vt -0.189652 1.818797
vt 0.066755 1.930618
vt 0.348309 1.788255
vt 1.729863 1.863852
vt 1.746797 1.930618
vt 2.048767 1.830643
vt 1.399857 1.798169
vt 2.662560 1.972196
vt 2.015076 1.648197
vt 2.177164 1.761867
vt 2.048767 1.830643
vt 2.201822 1.581907
vt 2.432191 1.777052
vt 2.015077 1.648197
vt 2.048767 1.830643
vt -0.936132 1.229871
vt -1.003441 1.352808
vt -1.120262 1.328277
vt -0.948049 1.494750
vt -0.948049 1.494750
vt -0.931091 0.958293
vt -0.880940 1.098970
vt -0.779817 1.099763
vt -0.931091 0.958293
vt -0.936132 1.229871
vt -0.644586 0.944748
vt -0.685896 1.088633
vt -0.779817 1.099763
vt -0.622878 1.207733
vt -0.644586 0.944748
vt -0.779817 1.099763
vt -0.622878 1.207733
vt -0.349822 0.727961
vt -0.408345 0.841821
vt -0.501055 0.815944
vt -0.376073 0.989025
vt -0.349822 0.727961
vt -0.376073 0.989025
vt -0.285418 0.607390
vt -0.349822 0.727961
vt -0.190202 0.637931
vt -0.349822 0.727961
vt -0.190202 0.637931
vt -0.035092 0.563009
vt -0.102808 0.671563
vt -0.074877 0.821701
vt -0.074877 0.821701
vt 0.294146 0.602539
vt 0.208511 0.648216
vt 0.135129 0.550155
vt 0.188896 0.802006
vt 0.294146 0.602539
vt 0.135129 0.550155
vt 0.188896 0.802006
vt 0.415609 0.409238
vt 0.388972 0.560119
vt 0.294146 0.602539
vt 0.459529 0.672741
vt 0.415609 0.409238
vt 0.459529 0.672741
vt 0.613395 0.745908
vt 0.522075 0.779926
vt 0.459529 0.672741
vt 0.495483 0.930320
vt 0.613395 0.745908
vt 0.459529 0.672741
vt 0.495483 0.930320
vt 0.892627 1.018811
vt 0.800952 1.008955
vt 0.758921 0.866731
vt 0.758921 0.866731
vt 0.741487 1.131255
vt 0.990995 1.020025
vt 0.892627 1.018811
vt 1.042746 1.153639
vt 1.041097 0.881142
vt 0.892627 1.018811
vt 1.042746 1.153639
vt 1.213786 1.259597
vt 1.102835 1.278658
vt 1.049652 1.416152
vt 1.213786 1.259597
vt 1.049652 1.416152
vt 1.606125 1.452053
vt 1.480912 1.484067
vt 1.395520 1.360825
vt 1.606125 1.452053
vt 1.395519 1.360825
vt 1.714611 1.393086
vt 1.606125 1.452054
vt 1.819123 1.468772
vt 1.722422 1.232858
vt 1.819123 1.468772
vt 2.058158 1.409513
vt 1.947962 1.517590
vt 2.015076 1.648197
vt 2.058158 1.409513
vt -0.638945 0.680567
vt -0.594920 0.811024
vt -0.644586 0.944748
vt -0.501055 0.815944
vt -0.638945 0.680567
vt -0.689047 0.541683
vt -0.638945 0.680567
vt -0.637296 0.408069
vt -0.637296 0.408069
vt -0.630390 0.145556
vt -0.577207 0.283050
vt -0.637296 0.408069
vt -0.466256 0.302111
vt -0.630391 0.145556
vt 0.042212 0.330319
vt 0.047667 0.476161
vt -0.035092 0.563009
vt 0.135129 0.550155
vt 0.042212 0.330319
vt -0.035092 0.563009
vt -0.073917 0.109655
vt 0.034505 0.169173
vt 0.138556 0.094365
vt 0.138556 0.094365
vt 0.334264 -0.082153
vt 0.266063 0.045717
vt 0.365227 0.156261
vt 0.334264 -0.082153
vt 0.748952 0.603417
vt 0.706952 0.735293
vt 0.613395 0.745908
vt 0.758921 0.866731
vt 0.748952 0.603417
vt 0.743910 0.331838
vt 0.799102 0.462739
vt 0.900225 0.461946
vt 0.748952 0.603417
vt 0.900225 0.461946
vt 1.057164 0.353976
vt 0.994147 0.473076
vt 1.057164 0.353976
vt 0.900225 0.461946
vt 1.361240 1.102068
vt 1.322775 1.243025
vt 1.361240 1.102068
vt 1.213786 1.259597
vt 1.395519 1.360825
vt 1.330220 0.833747
vt 1.394625 0.954318
vt 1.361240 1.102068
vt 1.489841 0.923778
vt 1.330220 0.833747
vt 1.361240 1.102068
vt 1.605165 0.740008
vt 1.577235 0.890146
vt 1.489841 0.923778
vt 1.644950 0.998699
vt 1.489841 0.923778
vt 1.644950 0.998699
vt -1.445589 1.237119
vt -1.264068 1.153947
vt -1.230335 1.299129
vt -1.301926 1.409513
vt -1.120262 1.328277
vt -1.264068 1.153947
vt -1.301926 1.409513
vt -1.392308 0.962727
vt -1.291971 1.002323
vt -1.264068 1.153947
vt -1.339026 0.688335
vt -1.220677 0.888749
vt -1.184330 0.630974
vt -1.157968 0.781683
vt -1.220677 0.888749
vt -1.184330 0.630974
vt -1.220677 0.888749
vt -1.066648 0.815801
vt -0.997267 0.185116
vt -1.019931 0.327629
vt -1.118719 0.384164
vt -0.938555 0.430453
vt -0.997267 0.185116
vt -1.118719 0.384164
vt -1.064772 -0.067116
vt -0.958429 0.026980
vt -0.825544 -0.010065
vt -1.064772 -0.067116
vt -0.997267 0.185116
vt -0.825544 -0.010065
vt -0.593480 -0.102312
vt -0.692219 -0.002278
vt -0.630391 0.145556
vt -0.593480 -0.102312
vt -0.825544 -0.010065
vt -0.280185 -0.236460
vt -0.407992 -0.145416
vt -0.593480 -0.102312
vt -0.280185 -0.236460
vt 0.066755 -0.368909
vt 0.049821 -0.302143
vt 0.367388 -0.268004
vt 0.066755 -0.368909
vt -0.280185 -0.236460
vt 0.367388 -0.268004
vt 0.693067 -0.169541
vt 0.489448 -0.193287
vt 0.367388 -0.268004
vt 0.334264 -0.082153
vt 0.693067 -0.169541
vt 0.367388 -0.268004
vt 0.334264 -0.082153
vt 0.946771 -0.088433
vt 0.800350 -0.078174
vt 0.693067 -0.169541
vt 0.731580 0.071335
vt 1.208447 -0.127594
vt 1.088938 -0.045151
vt 0.946771 -0.088433
vt 1.125283 0.116599
vt 1.125283 0.116599
vt 1.246838 0.322564
vt 1.145220 0.257581
vt 1.057164 0.353976
vt 1.246838 0.322564
vt 1.057165 0.353976
vt -1.277955 0.416031
vt -1.197773 0.473444
vt -1.184330 0.630974
vt -1.184330 0.630974
vt 1.895969 0.500184
vt 1.971597 0.383028
vt 2.082129 0.416031
vt 1.937361 0.235082
vt 2.143200 0.143726
vt 1.937361 0.235082
vt 1.889413 0.091803
vt 1.937361 0.235082
vt 1.961611 -0.023825
vt 1.761534 0.074675
vt 1.961611 -0.023825
vt 1.417883 0.379173
vt 1.325661 0.418349
vt 1.246838 0.322564
vt 1.303969 0.572684
vt 1.417883 0.379173
vt 1.566873 0.211221
vt 1.524090 0.352571
vt 1.417883 0.379173
vt 1.592847 0.478283
vt 1.646928 0.598033
vt 1.605165 0.740008
vt 1.605165 0.740008
s 0
usemtl Material.001
f 1/1/1 74/2/1 163/3/1 43/4/1
f 14/5/2 161/6/2 163/3/2 74/2/2
f 13/7/3 43/8/3 163/3/3 161/9/3
f 2/10/4 44/11/4 164/12/4 46/13/4
f 14/5/5 158/14/5 164/12/5 44/15/5
f 16/16/6 46/17/6 164/12/6 158/14/6
f 1/1/7 43/8/7 165/18/7 48/19/7
f 13/7/8 155/20/8 165/18/8 43/21/8
f 18/22/9 48/23/9 165/18/9 155/20/9
f 1/1/10 48/24/10 166/25/10 50/26/10
f 18/22/11 152/27/11 166/25/11 48/19/11
f 20/28/12 50/26/12 166/25/12 152/29/12
f 1/30/13 50/31/13 167/32/13 77/33/13
f 20/34/14 149/35/14 167/32/14 50/31/14
f 17/36/15 77/37/15 167/32/15 149/38/15
f 2/10/16 46/39/16 168/40/16 53/41/16
f 16/16/17 146/42/17 168/40/17 46/43/17
f 23/44/18 53/41/18 168/40/18 146/45/18
f 3/46/19 45/47/19 169/48/19 55/49/19
f 15/50/20 143/51/20 169/48/20 45/52/20
f 25/53/21 55/54/21 169/48/21 143/55/21
f 4/56/22 49/57/22 170/58/22 57/59/22
f 19/60/23 140/61/23 170/58/23 49/62/23
f 27/63/24 57/64/24 170/58/24 140/65/24
f 5/66/25 51/67/25 171/68/25 59/69/25
f 21/70/26 137/71/26 171/68/26 51/72/26
f 29/73/27 59/69/27 171/68/27 137/71/27
f 6/74/28 52/75/28 172/76/28 61/77/28
f 22/78/29 134/79/29 172/76/29 52/80/29
f 31/81/30 61/77/30 172/76/30 134/82/30
f 2/10/31 53/83/31 173/84/31 86/85/31
f 23/44/32 131/86/32 173/84/32 53/87/32
f 26/88/33 86/89/33 173/84/33 131/90/33
f 3/46/34 55/49/34 174/91/34 88/92/34
f 25/53/35 128/93/35 174/91/35 55/94/35
f 28/95/36 88/96/36 174/91/36 128/97/36
f 4/56/37 57/64/37 175/98/37 90/99/37
f 27/63/38 125/100/38 175/98/38 57/101/38
f 30/102/39 90/99/39 175/98/39 125/103/39
f 5/66/40 59/69/40 176/104/40 92/105/40
f 29/73/41 122/106/41 176/104/41 59/69/41
f 32/107/42 92/105/42 176/104/42 122/108/42
f 6/74/43 61/109/43 177/110/43 84/111/43
f 31/81/44 119/112/44 177/110/44 61/113/44
f 24/114/45 84/115/45 177/110/45 119/116/45
f 7/117/46 63/118/46 178/119/46 68/120/46
f 33/121/47 116/122/47 178/119/47 63/118/47
f 38/123/48 68/124/48 178/119/48 116/125/48
f 8/126/49 64/127/49 179/128/49 70/129/49
f 34/130/50 113/131/50 179/128/50 64/132/50
f 40/133/51 70/134/51 179/128/51 113/135/51
f 9/136/52 65/137/52 180/138/52 71/139/52
f 35/140/53 110/141/53 180/138/53 65/142/53
f 41/143/54 71/144/54 180/138/54 110/145/54
f 10/146/55 66/147/55 181/148/55 72/149/55
f 36/150/56 107/151/56 181/148/56 66/152/56
f 42/153/57 72/154/57 181/148/57 107/155/57
f 11/156/58 67/157/58 182/158/58 99/159/58
f 37/160/59 104/161/59 182/158/59 67/162/59
f 39/163/60 99/159/60 182/158/60 104/161/60
f 39/163/61 103/164/61 183/165/61 69/166/61
f 42/153/62 102/167/62 183/165/62 103/164/62
f 12/168/63 69/169/63 183/165/63 102/170/63
f 39/163/64 104/171/64 184/172/64 103/173/64
f 37/160/65 105/174/65 184/172/65 104/175/65
f 42/153/66 103/176/66 184/172/66 105/177/66
f 37/160/67 97/178/67 185/179/67 105/180/67
f 10/146/68 72/181/68 185/179/68 97/178/68
f 42/153/69 105/182/69 185/179/69 72/154/69
f 42/153/70 106/183/70 186/184/70 102/185/70
f 41/143/71 101/186/71 186/184/71 106/187/71
f 12/168/72 102/185/72 186/184/72 101/188/72
f 42/153/73 107/189/73 187/190/73 106/191/73
f 36/150/74 108/192/74 187/190/74 107/189/74
f 41/143/75 106/187/75 187/190/75 108/193/75
f 36/150/76 96/194/76 188/195/76 108/193/76
f 9/136/77 71/196/77 188/195/77 96/194/77
f 41/143/78 108/192/78 188/195/78 71/197/78
f 41/143/79 109/198/79 189/199/79 101/200/79
f 40/133/80 100/201/80 189/199/80 109/202/80
f 12/168/81 101/203/81 189/199/81 100/201/81
f 41/143/82 110/141/82 190/204/82 109/198/82
f 35/140/83 111/205/83 190/204/83 110/206/83
f 40/133/84 109/207/84 190/204/84 111/208/84
f 35/140/85 95/209/85 191/210/85 111/205/85
f 8/126/86 70/129/86 191/210/86 95/211/86
f 40/133/87 111/205/87 191/210/87 70/129/87
f 40/133/88 112/212/88 192/213/88 100/214/88
f 38/123/89 98/215/89 192/213/89 112/216/89
f 12/168/90 100/217/90 192/213/90 98/218/90
f 40/133/91 113/219/91 193/220/91 112/212/91
f 34/130/92 114/221/92 193/220/92 113/219/92
f 38/123/93 112/212/93 193/220/93 114/221/93
f 34/130/94 94/222/94 194/223/94 114/224/94
f 7/117/95 68/120/95 194/223/95 94/222/95
f 38/123/96 114/225/96 194/223/96 68/124/96
f 38/123/97 115/226/97 195/227/97 98/228/97
f 39/163/98 69/229/98 195/227/98 115/230/98
f 12/168/99 98/231/99 195/227/99 69/229/99
f 38/123/100 116/122/100 196/232/100 115/233/100
f 33/121/101 117/234/101 196/232/101 116/235/101
f 39/236/102 115/233/102 196/232/102 117/234/102
f 33/121/103 93/237/103 197/238/103 117/239/103
f 11/240/104 99/241/104 197/238/104 93/242/104
f 39/236/105 117/243/105 197/238/105 99/241/105
f 24/114/106 118/244/106 198/245/106 54/246/106
f 37/160/107 67/247/107 198/245/107 118/244/107
f 11/156/108 54/246/108 198/245/108 67/248/108
f 24/114/109 119/249/109 199/250/109 118/244/109
f 31/81/110 120/251/110 199/250/110 119/252/110
f 37/160/111 118/253/111 199/250/111 120/251/111
f 31/81/112 91/254/112 200/255/112 120/256/112
f 10/146/113 97/257/113 200/255/113 91/258/113
f 37/160/114 120/259/114 200/255/114 97/260/114
f 32/107/115 121/261/115 201/262/115 62/263/115
f 36/150/116 66/264/116 201/262/116 121/265/116
f 10/146/117 62/263/117 201/262/117 66/266/117
f 32/107/118 122/108/118 202/267/118 121/268/118
f 29/73/119 123/269/119 202/267/119 122/106/119
f 36/150/120 121/270/120 202/267/120 123/271/120
f 29/73/121 89/272/121 203/273/121 123/271/121
f 9/136/122 96/274/122 203/273/122 89/272/122
f 36/150/123 123/271/123 203/273/123 96/275/123
f 30/102/124 124/276/124 204/277/124 60/278/124
f 35/140/125 65/279/125 204/277/125 124/280/125
f 9/136/126 60/281/126 204/277/126 65/282/126
f 30/102/127 125/283/127 205/284/127 124/285/127
f 27/63/128 126/286/128 205/284/128 125/287/128
f 35/140/129 124/280/129 205/284/129 126/288/129
f 27/63/130 87/289/130 206/290/130 126/291/130
f 8/126/131 95/292/131 206/290/131 87/293/131
f 35/140/132 126/294/132 206/290/132 95/295/132
f 28/95/133 127/296/133 207/297/133 58/298/133
f 34/130/134 64/132/134 207/297/134 127/296/134
f 8/126/135 58/299/135 207/297/135 64/300/135
f 28/95/136 128/97/136 208/301/136 127/302/136
f 25/53/137 129/303/137 208/301/137 128/304/137
f 34/130/138 127/305/138 208/301/138 129/306/138
f 25/53/139 85/307/139 209/308/139 129/303/139
f 7/117/140 94/309/140 209/308/140 85/310/140
f 34/130/141 129/303/141 209/308/141 94/311/141
f 26/88/142 130/312/142 210/313/142 56/314/142
f 33/121/143 63/118/143 210/313/143 130/315/143
f 7/117/144 56/316/144 210/313/144 63/118/144
f 26/88/145 131/86/145 211/317/145 130/318/145
f 23/44/146 132/319/146 211/317/146 131/320/146
f 33/121/147 130/315/147 211/317/147 132/321/147
f 23/44/148 83/322/148 212/323/148 132/319/148
f 11/240/149 93/324/149 212/323/149 83/325/149
f 33/121/150 132/319/150 212/323/150 93/242/150
f 31/81/151 133/326/151 213/327/151 91/328/151
f 32/107/152 62/329/152 213/327/152 133/330/152
f 10/146/153 91/254/153 213/327/153 62/329/153
f 31/81/154 134/82/154 214/331/154 133/332/154
f 22/78/155 135/333/155 214/331/155 134/82/155
f 32/107/156 133/326/156 214/331/156 135/334/156
f 22/78/157 82/335/157 215/336/157 135/337/157
f 5/66/158 92/338/158 215/336/158 82/339/158
f 32/107/159 135/333/159 215/336/159 92/105/159
f 29/73/160 136/340/160 216/341/160 89/342/160
f 30/102/161 60/343/161 216/341/161 136/344/161
f 9/136/162 89/345/162 216/341/162 60/281/162
f 29/73/163 137/346/163 217/347/163 136/344/163
f 21/70/164 138/348/164 217/347/164 137/71/164
f 30/102/165 136/340/165 217/347/165 138/349/165
f 21/70/166 81/350/166 218/351/166 138/349/166
f 4/56/167 90/352/167 218/351/167 81/353/167
f 30/102/168 138/348/168 218/351/168 90/99/168
f 27/63/169 139/354/169 219/355/169 87/356/169
f 28/95/170 58/357/170 219/355/170 139/358/170
f 8/126/171 87/293/171 219/355/171 58/298/171
f 27/63/172 140/359/172 220/360/172 139/354/172
f 19/60/173 141/361/173 220/360/173 140/65/173
f 28/95/174 139/362/174 220/360/174 141/363/174
f 19/60/175 79/364/175 221/365/175 141/361/175
f 3/46/176 88/92/176 221/365/176 79/366/176
f 28/95/177 141/367/177 221/365/177 88/92/177
f 25/53/178 142/368/178 222/369/178 85/307/178
f 26/88/179 56/314/179 222/369/179 142/370/179
f 7/117/180 85/371/180 222/369/180 56/372/180
f 25/53/181 143/373/181 223/374/181 142/375/181
f 15/50/182 144/376/182 223/374/182 143/377/182
f 26/88/183 142/378/183 223/374/183 144/376/183
f 15/50/184 75/379/184 224/380/184 144/381/184
f 2/10/185 86/382/185 224/380/185 75/379/185
f 26/88/186 144/383/186 224/380/186 86/384/186
f 23/385/187 145/386/187 225/387/187 83/388/187
f 24/114/188 54/389/188 225/387/188 145/390/188
f 11/156/189 83/391/189 225/387/189 54/246/189
f 23/385/190 146/392/190 226/393/190 145/394/190
f 16/395/191 147/396/191 226/393/191 146/392/191
f 24/114/192 145/390/192 226/393/192 147/396/192
f 16/395/193 76/397/193 227/398/193 147/399/193
f 6/74/194 84/111/194 227/398/194 76/400/194
f 24/114/195 147/401/195 227/398/195 84/402/195
f 17/36/196 148/403/196 228/404/196 47/405/196
f 22/78/197 52/406/197 228/404/197 148/407/197
f 6/74/198 47/408/198 228/404/198 52/80/198
f 17/36/199 149/409/199 229/410/199 148/407/199
f 20/34/200 150/411/200 229/410/200 149/412/200
f 22/78/201 148/413/201 229/410/201 150/414/201
f 20/34/202 80/415/202 230/416/202 150/414/202
f 5/66/203 82/417/203 230/416/203 80/418/203
f 22/78/204 150/419/204 230/416/204 82/339/204
f 20/34/205 151/420/205 231/421/205 80/422/205
f 21/70/206 51/67/206 231/421/206 151/423/206
f 5/66/207 80/415/207 231/421/207 51/67/207
f 20/34/208 152/424/208 232/425/208 151/423/208
f 18/22/209 153/426/209 232/425/209 152/427/209
f 21/70/210 151/428/210 232/425/210 153/429/210
f 18/22/211 78/430/211 233/431/211 153/432/211
f 4/56/212 81/433/212 233/431/212 78/434/212
f 21/70/213 153/435/213 233/431/213 81/436/213
f 18/22/214 154/437/214 234/438/214 78/439/214
f 19/60/215 49/440/215 234/438/215 154/437/215
f 4/56/216 78/434/216 234/438/216 49/57/216
f 18/22/217 155/441/217 235/442/217 154/443/217
f 13/7/218 156/444/218 235/442/218 155/441/218
f 19/60/219 154/437/219 235/442/219 156/445/219
f 13/7/220 73/446/220 236/447/220 156/445/220
f 3/46/221 79/448/221 236/447/221 73/449/221
f 19/60/222 156/444/222 236/447/222 79/450/222
f 16/395/223 157/451/223 237/452/223 76/453/223
f 17/36/224 47/405/224 237/452/224 157/451/224
f 6/74/225 76/454/225 237/452/225 47/405/225
f 16/16/226 158/455/226 238/456/226 157/457/226
f 14/5/227 159/458/227 238/456/227 158/455/227
f 17/459/228 157/457/228 238/456/228 159/460/228
f 14/5/229 74/2/229 239/461/229 159/462/229
f 1/1/230 77/463/230 239/461/230 74/464/230
f 17/459/231 159/462/231 239/461/231 77/465/231
f 13/7/232 160/466/232 240/467/232 73/468/232
f 15/50/233 45/469/233 240/467/233 160/470/233
f 3/46/234 73/468/234 240/467/234 45/469/234
f 13/7/235 161/471/235 241/472/235 160/473/235
f 14/5/236 162/474/236 241/472/236 161/9/236
f 15/50/237 160/473/237 241/472/237 162/474/237
f 14/5/238 44/11/238 242/475/238 162/474/238
f 2/10/239 75/476/239 242/475/239 44/15/239
f 15/50/240 162/474/240 242/475/240 75/477/240
